<?xml version="1.0" encoding="utf-8"?>
<!-- Generator: Adobe Illustrator 25.2.0, SVG Export Plug-In . SVG Version: 6.00 Build 0)  -->
<svg version="1.1" id="Layer_1" xmlns="http://www.w3.org/2000/svg" xmlns:xlink="http://www.w3.org/1999/xlink" x="0px" y="0px"
	 viewBox="0 0 1366 768" style="enable-background:new 0 0 1366 768;" xml:space="preserve">
<style type="text/css">
	.st0{fill:url(#SVGID_1_);}
	.st1{fill:#A5A5A5;}
	.st2{fill:#91E85A;stroke:url(#SVGID_2_);stroke-miterlimit:10;}
	.st3{fill:url(#SVGID_3_);}
	.st4{fill:url(#SVGID_4_);}
	.st5{fill:url(#SVGID_5_);}
	.st6{fill:url(#SVGID_6_);}
	.st7{fill:url(#SVGID_7_);}
	.st8{fill:#0C0CA3;}
	.st9{font-family:'ArialRoundedMTBold';}
	.st10{font-size:73px;}
	.st11{letter-spacing:3.8;}
	.st12{fill:#00C51F;}
	.st13{fill:#515050;}
	.st14{font-family:'Microsoft-Yi-Baiti';}
	.st15{font-size:11px;}
	.st16{letter-spacing:0.7;}
	.st17{fill:url(#SVGID_8_);}
	.st18{fill:url(#SVGID_9_);}
	.st19{fill:url(#SVGID_10_);}
	.st20{fill:url(#SVGID_11_);}
	.st21{fill:url(#SVGID_12_);}
	.st22{fill:url(#SVGID_13_);}
	.st23{fill:#3CC64C;}
	.st24{fill:#171917;}
	.st25{fill:#747574;}
	.st26{stroke:#747574;stroke-miterlimit:10;}
	.st27{fill:#171917;stroke:#747574;stroke-width:0.5;stroke-miterlimit:10;}
	.st28{fill:#050000;}
	.st29{fill:none;}
</style>
<g>
	<g>
		<linearGradient id="SVGID_1_" gradientUnits="userSpaceOnUse" x1="686.7745" y1="210.6156" x2="929.1515" y2="210.6156">
			<stop  offset="0" style="stop-color:#74FF83"/>
			<stop  offset="0.9673" style="stop-color:#0926A9"/>
		</linearGradient>
		<path class="st0" d="M827.7,201.1c-12.8,0-23.2,10.4-23.2,23.1c0,12.8,10.4,23.1,23.2,23.1c4.3,0,8.3-1.2,11.8-3.2h88.3
			c1.5-9.7,5.1-40-12.7-70.2c-26.6-45-77.9-50.9-85.9-51.6V89.7c-15.5-0.4-43.1,1.4-71.2,17.4c-63.7,36.3-70.6,112.6-71.2,120.6
			h38.5c0.7,11.7,3.8,35.8,20.5,58.8c19.7,26.9,56.8,50.5,99.1,44c43.8-6.8,66.7-41.7,70.5-47.6h-55.3
			C777.4,321,762.2,227,762.2,227H726c0.6-11.6,3.4-32.6,17.1-53.5c27.5-41.7,75.8-47.7,85.3-48.6v34.6c4.6-0.2,20.8-0.3,36.8,10.7
			c18,12.4,23.2,30.5,24.4,35.2c-16,0.1-32,0.1-48,0.2C837.8,202.8,833,201.1,827.7,201.1z M829.2,124.9
			C829.2,124.9,829.2,124.9,829.2,124.9L829.2,124.9C829.2,124.9,829.2,124.9,829.2,124.9L829.2,124.9z"/>
	</g>
	<path class="st1" d="M726,231.6L726,231.6z"/>
	<g>
		<path class="st1" d="M829.2,124.9L829.2,124.9C829.2,124.9,829.2,124.9,829.2,124.9L829.2,124.9
			C829.2,124.9,829.2,124.9,829.2,124.9z"/>
	</g>
	<path class="st1" d="M829.2,124.9L829.2,124.9C829.2,124.9,829.2,124.9,829.2,124.9L829.2,124.9
		C829.2,124.9,829.2,124.9,829.2,124.9z"/>
	<path class="st1" d="M829.2,124.9L829.2,124.9C829.2,124.9,829.2,124.9,829.2,124.9L829.2,124.9
		C829.2,124.9,829.2,124.9,829.2,124.9z"/>
</g>
<linearGradient id="SVGID_2_" gradientUnits="userSpaceOnUse" x1="725.9893" y1="231.5974" x2="725.9893" y2="231.5974">
	<stop  offset="0" style="stop-color:#FFFFFF"/>
	<stop  offset="1" style="stop-color:#000000"/>
</linearGradient>
<path class="st2" d="M726,231.6"/>
<g>
	<g>
		<linearGradient id="SVGID_3_" gradientUnits="userSpaceOnUse" x1="983.834" y1="233.957" x2="1274.4492" y2="233.957">
			<stop  offset="0" style="stop-color:#0025FF;stop-opacity:0.8"/>
			<stop  offset="7.380247e-03" style="stop-color:#0129F6;stop-opacity:0.8015"/>
			<stop  offset="4.767627e-02" style="stop-color:#053DC8;stop-opacity:0.8095"/>
			<stop  offset="9.308982e-02" style="stop-color:#09509D;stop-opacity:0.8186"/>
			<stop  offset="0.1419" style="stop-color:#0C6077;stop-opacity:0.8284"/>
			<stop  offset="0.195" style="stop-color:#0F6E57;stop-opacity:0.839"/>
			<stop  offset="0.2537" style="stop-color:#127A3B;stop-opacity:0.8507"/>
			<stop  offset="0.32" style="stop-color:#148425;stop-opacity:0.864"/>
			<stop  offset="0.3974" style="stop-color:#158B14;stop-opacity:0.8795"/>
			<stop  offset="0.4931" style="stop-color:#169009;stop-opacity:0.8986"/>
			<stop  offset="0.6274" style="stop-color:#179302;stop-opacity:0.9255"/>
			<stop  offset="1" style="stop-color:#179400"/>
		</linearGradient>
		<path class="st3" d="M1004.9,211.1l22.1,30.4l-0.5-31.1c0-2,0.4-3.5,1.3-4.6c0.9-1,2.1-1.6,3.7-1.6c1.6,0,2.9,0.5,3.8,1.4
			c0.9,1,1.4,2.5,1.5,4.5l0.7,41.1c0.1,4.6-1.9,6.9-5.9,7c-1,0-1.9-0.1-2.7-0.4s-1.6-0.7-2.3-1.3c-0.7-0.6-1.4-1.3-2-2.1
			c-0.6-0.8-1.2-1.6-1.9-2.4l-21.6-30.1l0.5,30.6c0,2-0.4,3.5-1.4,4.6c-1,1-2.2,1.6-3.8,1.6c-1.6,0-2.9-0.5-3.8-1.5
			c-1-1-1.5-2.5-1.5-4.5l-0.7-40.3c0-1.7,0.1-3.1,0.5-4c0.5-1.1,1.2-2,2.3-2.7c1.1-0.7,2.3-1.1,3.6-1.1c1,0,1.9,0.1,2.6,0.4
			c0.7,0.3,1.4,0.7,1.9,1.2c0.6,0.5,1.1,1.2,1.7,2C1003.6,209.4,1004.2,210.3,1004.9,211.1z"/>
		<linearGradient id="SVGID_4_" gradientUnits="userSpaceOnUse" x1="983.834" y1="233.957" x2="1274.4492" y2="233.957">
			<stop  offset="0" style="stop-color:#0025FF;stop-opacity:0.8"/>
			<stop  offset="7.380247e-03" style="stop-color:#0129F6;stop-opacity:0.8015"/>
			<stop  offset="4.767627e-02" style="stop-color:#053DC8;stop-opacity:0.8095"/>
			<stop  offset="9.308982e-02" style="stop-color:#09509D;stop-opacity:0.8186"/>
			<stop  offset="0.1419" style="stop-color:#0C6077;stop-opacity:0.8284"/>
			<stop  offset="0.195" style="stop-color:#0F6E57;stop-opacity:0.839"/>
			<stop  offset="0.2537" style="stop-color:#127A3B;stop-opacity:0.8507"/>
			<stop  offset="0.32" style="stop-color:#148425;stop-opacity:0.864"/>
			<stop  offset="0.3974" style="stop-color:#158B14;stop-opacity:0.8795"/>
			<stop  offset="0.4931" style="stop-color:#169009;stop-opacity:0.8986"/>
			<stop  offset="0.6274" style="stop-color:#179302;stop-opacity:0.9255"/>
			<stop  offset="1" style="stop-color:#179400"/>
		</linearGradient>
		<path class="st4" d="M1092.4,238.5c0.1,2.9-0.4,5.6-1.3,8s-2.3,4.6-4,6.4c-1.8,1.8-3.9,3.2-6.4,4.2c-2.5,1-5.3,1.5-8.5,1.6
			c-3.1,0.1-5.9-0.4-8.4-1.3s-4.7-2.2-6.6-4c-1.9-1.7-3.3-3.8-4.3-6.2c-1-2.4-1.5-5.1-1.6-8c-0.1-2.9,0.4-5.7,1.3-8.1
			c0.9-2.5,2.3-4.6,4-6.3s3.9-3.1,6.4-4.1c2.5-1,5.3-1.5,8.4-1.6c3.1-0.1,6,0.4,8.5,1.3c2.6,0.9,4.8,2.2,6.6,3.9s3.3,3.8,4.2,6.2
			C1091.8,233,1092.3,235.6,1092.4,238.5z M1082,238.7c-0.1-4-1-7-2.9-9.2c-1.9-2.2-4.4-3.2-7.5-3.2c-2,0-3.8,0.6-5.3,1.6
			s-2.7,2.5-3.5,4.4c-0.8,1.9-1.2,4.2-1.1,6.8c0,2.5,0.5,4.8,1.3,6.6c0.9,1.9,2,3.3,3.6,4.3c1.5,1,3.3,1.5,5.4,1.4
			c3.1-0.1,5.6-1.2,7.4-3.5S1082.1,242.6,1082,238.7z"/>
		<linearGradient id="SVGID_5_" gradientUnits="userSpaceOnUse" x1="983.834" y1="233.957" x2="1274.4492" y2="233.957">
			<stop  offset="0" style="stop-color:#0025FF;stop-opacity:0.8"/>
			<stop  offset="7.380247e-03" style="stop-color:#0129F6;stop-opacity:0.8015"/>
			<stop  offset="4.767627e-02" style="stop-color:#053DC8;stop-opacity:0.8095"/>
			<stop  offset="9.308982e-02" style="stop-color:#09509D;stop-opacity:0.8186"/>
			<stop  offset="0.1419" style="stop-color:#0C6077;stop-opacity:0.8284"/>
			<stop  offset="0.195" style="stop-color:#0F6E57;stop-opacity:0.839"/>
			<stop  offset="0.2537" style="stop-color:#127A3B;stop-opacity:0.8507"/>
			<stop  offset="0.32" style="stop-color:#148425;stop-opacity:0.864"/>
			<stop  offset="0.3974" style="stop-color:#158B14;stop-opacity:0.8795"/>
			<stop  offset="0.4931" style="stop-color:#169009;stop-opacity:0.8986"/>
			<stop  offset="0.6274" style="stop-color:#179302;stop-opacity:0.9255"/>
			<stop  offset="1" style="stop-color:#179400"/>
		</linearGradient>
		<path class="st5" d="M1105.7,220.1l1.1,0l-0.1-5.8c0-1.6,0-2.8,0.1-3.7c0.1-0.9,0.3-1.7,0.7-2.3c0.4-0.7,1-1.2,1.7-1.7
			s1.6-0.7,2.5-0.7c1.3,0,2.5,0.4,3.6,1.3c0.7,0.6,1.2,1.4,1.4,2.2c0.2,0.9,0.3,2.2,0.3,3.8l0.1,6.6l3.8-0.1c1.5,0,2.6,0.3,3.4,0.9
			c0.8,0.6,1.2,1.5,1.2,2.5c0,1.3-0.5,2.2-1.6,2.8c-1.1,0.5-2.7,0.8-4.7,0.9l-1.9,0l0.3,17.9c0,1.5,0.1,2.7,0.2,3.5
			c0.1,0.8,0.4,1.5,0.9,2c0.5,0.5,1.3,0.7,2.4,0.7c0.6,0,1.4-0.1,2.5-0.3c1-0.2,1.8-0.3,2.4-0.3c0.8,0,1.6,0.3,2.3,0.9
			c0.7,0.6,1,1.4,1,2.3c0,1.6-0.9,2.8-2.7,3.6c-1.8,0.9-4.4,1.3-7.8,1.4c-3.2,0.1-5.7-0.4-7.4-1.4s-2.8-2.4-3.3-4.2
			s-0.8-4.2-0.9-7.2l-0.3-18.7l-1.4,0c-1.5,0-2.6-0.3-3.4-0.9c-0.8-0.7-1.2-1.5-1.2-2.5c0-1,0.4-1.9,1.2-2.5
			C1103,220.5,1104.2,220.1,1105.7,220.1z"/>
		<linearGradient id="SVGID_6_" gradientUnits="userSpaceOnUse" x1="983.834" y1="233.957" x2="1274.4492" y2="233.957">
			<stop  offset="0" style="stop-color:#0025FF;stop-opacity:0.8"/>
			<stop  offset="7.380247e-03" style="stop-color:#0129F6;stop-opacity:0.8015"/>
			<stop  offset="4.767627e-02" style="stop-color:#053DC8;stop-opacity:0.8095"/>
			<stop  offset="9.308982e-02" style="stop-color:#09509D;stop-opacity:0.8186"/>
			<stop  offset="0.1419" style="stop-color:#0C6077;stop-opacity:0.8284"/>
			<stop  offset="0.195" style="stop-color:#0F6E57;stop-opacity:0.839"/>
			<stop  offset="0.2537" style="stop-color:#127A3B;stop-opacity:0.8507"/>
			<stop  offset="0.32" style="stop-color:#148425;stop-opacity:0.864"/>
			<stop  offset="0.3974" style="stop-color:#158B14;stop-opacity:0.8795"/>
			<stop  offset="0.4931" style="stop-color:#169009;stop-opacity:0.8986"/>
			<stop  offset="0.6274" style="stop-color:#179302;stop-opacity:0.9255"/>
			<stop  offset="1" style="stop-color:#179400"/>
		</linearGradient>
		<path class="st6" d="M1166.7,241.1l-20.2,0.4c0.1,2.2,0.6,4.1,1.5,5.8c0.9,1.7,2.2,2.9,3.7,3.7c1.5,0.8,3.2,1.2,5.1,1.2
			c1.2,0,2.4-0.2,3.4-0.5c1-0.3,2-0.7,2.9-1.3c0.9-0.6,1.8-1.2,2.6-1.9c0.8-0.7,1.8-1.6,3.1-2.8c0.5-0.4,1.3-0.7,2.3-0.7
			c1.1,0,1.9,0.2,2.6,0.8c0.7,0.5,1,1.3,1,2.3c0,0.9-0.3,1.9-1,3.1s-1.8,2.3-3.2,3.4c-1.5,1.1-3.3,2-5.5,2.8
			c-2.2,0.8-4.8,1.2-7.7,1.2c-6.6,0.1-11.8-1.6-15.5-5.1c-3.7-3.5-5.7-8.3-5.8-14.4c-0.1-2.9,0.4-5.5,1.2-8c0.9-2.5,2.1-4.6,3.9-6.4
			c1.7-1.8,3.8-3.2,6.4-4.2c2.5-1,5.3-1.5,8.4-1.6c4-0.1,7.5,0.7,10.4,2.2c2.9,1.6,5.1,3.6,6.6,6.1c1.5,2.5,2.2,5.1,2.3,7.7
			c0,2.4-0.7,4-2.1,4.8C1171.5,240.6,1169.4,241,1166.7,241.1z M1146.4,235.9l18.7-0.3c-0.3-3.3-1.3-5.8-3-7.4
			c-1.7-1.6-3.9-2.4-6.6-2.4c-2.6,0-4.7,0.9-6.3,2.6C1147.7,230.1,1146.7,232.6,1146.4,235.9z"/>
		<linearGradient id="SVGID_7_" gradientUnits="userSpaceOnUse" x1="983.834" y1="233.957" x2="1274.4492" y2="233.957">
			<stop  offset="0" style="stop-color:#0025FF;stop-opacity:0.8"/>
			<stop  offset="7.380247e-03" style="stop-color:#0129F6;stop-opacity:0.8015"/>
			<stop  offset="4.767627e-02" style="stop-color:#053DC8;stop-opacity:0.8095"/>
			<stop  offset="9.308982e-02" style="stop-color:#09509D;stop-opacity:0.8186"/>
			<stop  offset="0.1419" style="stop-color:#0C6077;stop-opacity:0.8284"/>
			<stop  offset="0.195" style="stop-color:#0F6E57;stop-opacity:0.839"/>
			<stop  offset="0.2537" style="stop-color:#127A3B;stop-opacity:0.8507"/>
			<stop  offset="0.32" style="stop-color:#148425;stop-opacity:0.864"/>
			<stop  offset="0.3974" style="stop-color:#158B14;stop-opacity:0.8795"/>
			<stop  offset="0.4931" style="stop-color:#169009;stop-opacity:0.8986"/>
			<stop  offset="0.6274" style="stop-color:#179302;stop-opacity:0.9255"/>
			<stop  offset="1" style="stop-color:#179400"/>
		</linearGradient>
		<path class="st7" d="M1222.2,245.7c0,2.7-0.6,5-2,6.9s-3.4,3.4-6.1,4.5c-2.7,1-6,1.6-9.9,1.7c-3.7,0.1-6.9-0.4-9.5-1.4
			s-4.6-2.3-5.9-3.9s-1.9-3.2-2-4.8c0-1.1,0.4-2,1.2-2.8c0.8-0.8,1.8-1.2,3-1.2c1.1,0,1.9,0.2,2.5,0.7c0.6,0.5,1.2,1.2,1.7,2.1
			c1.1,1.7,2.4,3,3.9,3.8c1.5,0.8,3.5,1.2,6,1.2c2.1,0,3.8-0.5,5.1-1.4c1.3-0.9,2-1.9,1.9-3c0-1.7-0.7-2.9-2.1-3.7
			c-1.4-0.8-3.7-1.5-6.8-2.1c-3.6-0.8-6.5-1.6-8.7-2.5c-2.2-0.9-4-2.1-5.4-3.5s-2.1-3.3-2.1-5.5c0-1.9,0.6-3.8,1.8-5.6
			c1.2-1.8,3-3.2,5.4-4.2c2.4-1.1,5.3-1.6,8.7-1.7c2.7,0,5.1,0.2,7.2,0.7c2.1,0.5,3.9,1.2,5.4,2c1.4,0.9,2.5,1.8,3.3,2.9
			c0.8,1.1,1.2,2.1,1.2,3.1c0,1.1-0.4,2-1.1,2.8c-0.8,0.7-1.9,1.1-3.4,1.1c-1.1,0-2-0.3-2.7-0.8c-0.8-0.6-1.6-1.4-2.6-2.5
			c-0.8-0.9-1.7-1.7-2.8-2.2c-1.1-0.6-2.5-0.8-4.3-0.8c-1.9,0-3.4,0.4-4.6,1.2c-1.2,0.8-1.8,1.7-1.8,2.8c0,1,0.5,1.9,1.4,2.5
			s2.1,1.2,3.7,1.6c1.5,0.4,3.7,0.9,6.4,1.5c3.2,0.7,5.8,1.5,7.9,2.5c2,1,3.6,2.2,4.7,3.5C1221.6,242.3,1222.1,243.9,1222.2,245.7z"
			/>
	</g>
	<text transform="matrix(1.0598 -1.849955e-02 1.745241e-02 0.9998 985.0045 258.3029)"><tspan x="0" y="0" class="st8 st9 st10 st11">N</tspan><tspan x="60.2" y="1" class="st8 st9 st10 st11">o</tspan><tspan x="108.9" y="1.7" class="st8 st9 st10 st11">t</tspan><tspan x="139.5" y="2.5" class="st8 st9 st10 st11">e</tspan><tspan x="187.5" y="3.3" class="st8 st9 st10 st11">s</tspan></text>
</g>
<line class="st12" x1="962.4" y1="282.9" x2="962.4" y2="202"/>
<text transform="matrix(1.4791 -5.165126e-02 3.489950e-02 0.9994 1012.7201 323.9005)"><tspan x="0" y="0" class="st13 st14 st15 st16">A</tspan><tspan x="6.8" y="0.4" class="st13 st14 st15 st16">N</tspan><tspan x="14" y="0.7" class="st13 st14 st15 st16">Y</tspan><tspan x="20.8" y="1.1" class="st13 st14 st15 st16"> </tspan><tspan x="26.9" y="1.4" class="st13 st14 st15 st16">T</tspan><tspan x="33.2" y="1.6" class="st13 st14 st15 st16">I</tspan><tspan x="36.7" y="1.9" class="st13 st14 st15 st16">M</tspan><tspan x="44.9" y="2.3" class="st13 st14 st15 st16">E</tspan><tspan x="51.7" y="2.7" class="st13 st14 st15 st16"> </tspan><tspan x="57.8" y="3" class="st13 st14 st15 st16">A</tspan><tspan x="64.6" y="3.3" class="st13 st14 st15 st16">N</tspan><tspan x="71.8" y="3.7" class="st13 st14 st15 st16">Y</tspan><tspan x="78.6" y="4" class="st13 st14 st15 st16"> </tspan><tspan x="84.6" y="4.4" class="st13 st14 st15 st16">W</tspan><tspan x="93.7" y="4.9" class="st13 st14 st15 st16">H</tspan><tspan x="101" y="5.2" class="st13 st14 st15 st16">E</tspan><tspan x="107.8" y="5.6" class="st13 st14 st15 st16">R</tspan><tspan x="115" y="5.9" class="st13 st14 st15 st16">E</tspan></text>
<g>
	<g>
		<linearGradient id="SVGID_8_" gradientUnits="userSpaceOnUse" x1="672.53" y1="581.3409" x2="914.907" y2="581.3409">
			<stop  offset="0" style="stop-color:#74FF83"/>
			<stop  offset="0.9673" style="stop-color:#0926A9"/>
		</linearGradient>
		<path class="st17" d="M813.5,571.8c-12.8,0-23.2,10.4-23.2,23.1c0,12.8,10.4,23.1,23.2,23.1c4.3,0,8.3-1.2,11.8-3.2h88.3
			c1.5-9.7,5.1-40-12.7-70.2c-26.6-45-77.9-50.9-85.9-51.6v-32.6c-15.5-0.4-43.1,1.4-71.2,17.4c-63.7,36.3-70.6,112.6-71.2,120.6
			h38.5c0.7,11.7,3.8,35.8,20.5,58.8c19.7,26.9,56.8,50.5,99.1,44c43.8-6.8,66.7-41.7,70.5-47.6h-55.3
			c-82.7,38.1-97.9-55.9-97.9-55.9h-36.1c0.6-11.6,3.4-32.6,17.1-53.5c27.5-41.7,75.8-47.7,85.3-48.6v34.6
			c4.6-0.2,20.8-0.3,36.8,10.7c18,12.4,23.2,30.5,24.4,35.2c-16,0.1-32,0.1-48,0.2C823.5,573.5,818.7,571.8,813.5,571.8z M815,495.6
			C815,495.6,815,495.6,815,495.6L815,495.6C815,495.6,815,495.6,815,495.6L815,495.6z"/>
	</g>
	<path class="st1" d="M711.7,602.3L711.7,602.3z"/>
	<g>
		<path class="st1" d="M815,495.6L815,495.6C815,495.6,815,495.6,815,495.6L815,495.6C815,495.6,815,495.6,815,495.6z"/>
	</g>
	<path class="st1" d="M815,495.6L815,495.6C815,495.6,815,495.6,815,495.6L815,495.6C815,495.6,815,495.6,815,495.6z"/>
	<path class="st1" d="M815,495.6L815,495.6C815,495.6,815,495.6,815,495.6L815,495.6C815,495.6,815,495.6,815,495.6z"/>
</g>
<g>
	<g>
		<linearGradient id="SVGID_9_" gradientUnits="userSpaceOnUse" x1="962.4346" y1="609.7637" x2="1253.0498" y2="609.7637">
			<stop  offset="0" style="stop-color:#0025FF;stop-opacity:0.8"/>
			<stop  offset="1.606572e-02" style="stop-color:#0022FA;stop-opacity:0.8032"/>
			<stop  offset="0.1025" style="stop-color:#0116E4;stop-opacity:0.8205"/>
			<stop  offset="0.2046" style="stop-color:#020CD3;stop-opacity:0.8409"/>
			<stop  offset="0.3309" style="stop-color:#0305C8;stop-opacity:0.8662"/>
			<stop  offset="0.5081" style="stop-color:#0301C1;stop-opacity:0.9016"/>
			<stop  offset="1" style="stop-color:#0300BF"/>
		</linearGradient>
		<path class="st18" d="M983.5,587l22.1,30.4l-0.5-31.1c0-2,0.4-3.5,1.3-4.6c0.9-1,2.1-1.6,3.7-1.6c1.6,0,2.9,0.5,3.8,1.4
			c0.9,1,1.4,2.5,1.5,4.5l0.7,41.1c0.1,4.6-1.9,6.9-5.9,7c-1,0-1.9-0.1-2.7-0.4s-1.6-0.7-2.3-1.3c-0.7-0.6-1.4-1.3-2-2.1
			c-0.6-0.8-1.2-1.6-1.9-2.4L979.7,598l0.5,30.6c0,2-0.4,3.5-1.4,4.6c-1,1-2.2,1.6-3.8,1.6c-1.6,0-2.9-0.5-3.8-1.5
			c-1-1-1.5-2.5-1.5-4.5l-0.7-40.3c0-1.7,0.1-3.1,0.5-4c0.5-1.1,1.2-2,2.3-2.7c1.1-0.7,2.3-1.1,3.6-1.1c1,0,1.9,0.1,2.6,0.4
			c0.7,0.3,1.4,0.7,1.9,1.2c0.6,0.5,1.1,1.2,1.7,2C982.2,585.2,982.8,586.1,983.5,587z"/>
		<linearGradient id="SVGID_10_" gradientUnits="userSpaceOnUse" x1="962.4346" y1="609.7637" x2="1253.0498" y2="609.7637">
			<stop  offset="0" style="stop-color:#0025FF;stop-opacity:0.8"/>
			<stop  offset="1.606572e-02" style="stop-color:#0022FA;stop-opacity:0.8032"/>
			<stop  offset="0.1025" style="stop-color:#0116E4;stop-opacity:0.8205"/>
			<stop  offset="0.2046" style="stop-color:#020CD3;stop-opacity:0.8409"/>
			<stop  offset="0.3309" style="stop-color:#0305C8;stop-opacity:0.8662"/>
			<stop  offset="0.5081" style="stop-color:#0301C1;stop-opacity:0.9016"/>
			<stop  offset="1" style="stop-color:#0300BF"/>
		</linearGradient>
		<path class="st19" d="M1071,614.3c0.1,2.9-0.4,5.6-1.3,8s-2.3,4.6-4,6.4c-1.8,1.8-3.9,3.2-6.4,4.2c-2.5,1-5.3,1.5-8.5,1.6
			c-3.1,0.1-5.9-0.4-8.4-1.3s-4.7-2.2-6.6-4c-1.9-1.7-3.3-3.8-4.3-6.2c-1-2.4-1.5-5.1-1.6-8c-0.1-2.9,0.4-5.7,1.3-8.1
			c0.9-2.5,2.3-4.6,4-6.3s3.9-3.1,6.4-4.1c2.5-1,5.3-1.5,8.4-1.6c3.1-0.1,6,0.4,8.5,1.3c2.6,0.9,4.8,2.2,6.6,3.9s3.3,3.8,4.2,6.2
			C1070.4,608.8,1070.9,611.4,1071,614.3z M1060.6,614.5c-0.1-4-1-7-2.9-9.2c-1.9-2.2-4.4-3.2-7.5-3.2c-2,0-3.8,0.6-5.3,1.6
			s-2.7,2.5-3.5,4.4c-0.8,1.9-1.2,4.2-1.1,6.8c0,2.5,0.5,4.8,1.3,6.6c0.9,1.9,2,3.3,3.6,4.3c1.5,1,3.3,1.5,5.4,1.4
			c3.1-0.1,5.6-1.2,7.4-3.5S1060.7,618.4,1060.6,614.5z"/>
		<linearGradient id="SVGID_11_" gradientUnits="userSpaceOnUse" x1="962.4346" y1="609.7637" x2="1253.0498" y2="609.7637">
			<stop  offset="0" style="stop-color:#0025FF;stop-opacity:0.8"/>
			<stop  offset="1.606572e-02" style="stop-color:#0022FA;stop-opacity:0.8032"/>
			<stop  offset="0.1025" style="stop-color:#0116E4;stop-opacity:0.8205"/>
			<stop  offset="0.2046" style="stop-color:#020CD3;stop-opacity:0.8409"/>
			<stop  offset="0.3309" style="stop-color:#0305C8;stop-opacity:0.8662"/>
			<stop  offset="0.5081" style="stop-color:#0301C1;stop-opacity:0.9016"/>
			<stop  offset="1" style="stop-color:#0300BF"/>
		</linearGradient>
		<path class="st20" d="M1084.3,595.9l1.1,0l-0.1-5.8c0-1.6,0-2.8,0.1-3.7c0.1-0.9,0.3-1.7,0.7-2.3c0.4-0.7,1-1.2,1.7-1.7
			s1.6-0.7,2.5-0.7c1.3,0,2.5,0.4,3.6,1.3c0.7,0.6,1.2,1.4,1.4,2.2c0.2,0.9,0.3,2.2,0.3,3.8l0.1,6.6l3.8-0.1c1.5,0,2.6,0.3,3.4,0.9
			c0.8,0.6,1.2,1.5,1.2,2.5c0,1.3-0.5,2.2-1.6,2.8c-1.1,0.5-2.7,0.8-4.7,0.9l-1.9,0l0.3,17.9c0,1.5,0.1,2.7,0.2,3.5
			c0.1,0.8,0.4,1.5,0.9,2c0.5,0.5,1.3,0.7,2.4,0.7c0.6,0,1.4-0.1,2.5-0.3c1-0.2,1.8-0.3,2.4-0.3c0.8,0,1.6,0.3,2.3,0.9
			c0.7,0.6,1,1.4,1,2.3c0,1.6-0.9,2.8-2.7,3.6c-1.8,0.9-4.4,1.3-7.8,1.4c-3.2,0.1-5.7-0.4-7.4-1.4s-2.8-2.4-3.3-4.2
			s-0.8-4.2-0.9-7.2l-0.3-18.7l-1.4,0c-1.5,0-2.6-0.3-3.4-0.9c-0.8-0.7-1.2-1.5-1.2-2.5c0-1,0.4-1.9,1.2-2.5
			C1081.6,596.3,1082.8,595.9,1084.3,595.9z"/>
		<linearGradient id="SVGID_12_" gradientUnits="userSpaceOnUse" x1="962.4346" y1="609.7637" x2="1253.0498" y2="609.7637">
			<stop  offset="0" style="stop-color:#0025FF;stop-opacity:0.8"/>
			<stop  offset="1.606572e-02" style="stop-color:#0022FA;stop-opacity:0.8032"/>
			<stop  offset="0.1025" style="stop-color:#0116E4;stop-opacity:0.8205"/>
			<stop  offset="0.2046" style="stop-color:#020CD3;stop-opacity:0.8409"/>
			<stop  offset="0.3309" style="stop-color:#0305C8;stop-opacity:0.8662"/>
			<stop  offset="0.5081" style="stop-color:#0301C1;stop-opacity:0.9016"/>
			<stop  offset="1" style="stop-color:#0300BF"/>
		</linearGradient>
		<path class="st21" d="M1145.3,616.9l-20.2,0.4c0.1,2.2,0.6,4.1,1.5,5.8c0.9,1.7,2.2,2.9,3.7,3.7c1.5,0.8,3.2,1.2,5.1,1.2
			c1.2,0,2.4-0.2,3.4-0.5c1-0.3,2-0.7,2.9-1.3c0.9-0.6,1.8-1.2,2.6-1.9c0.8-0.7,1.8-1.6,3.1-2.8c0.5-0.4,1.3-0.7,2.3-0.7
			c1.1,0,1.9,0.2,2.6,0.8c0.7,0.5,1,1.3,1,2.3c0,0.9-0.3,1.9-1,3.1s-1.8,2.3-3.2,3.4c-1.5,1.1-3.3,2-5.5,2.8
			c-2.2,0.8-4.8,1.2-7.7,1.2c-6.6,0.1-11.8-1.6-15.5-5.1c-3.7-3.5-5.7-8.3-5.8-14.4c-0.1-2.9,0.4-5.5,1.2-8c0.9-2.5,2.1-4.6,3.9-6.4
			c1.7-1.8,3.8-3.2,6.4-4.2c2.5-1,5.3-1.5,8.4-1.6c4-0.1,7.5,0.7,10.4,2.2c2.9,1.6,5.1,3.6,6.6,6.1c1.5,2.5,2.2,5.1,2.3,7.7
			c0,2.4-0.7,4-2.1,4.8C1150.1,616.5,1148,616.9,1145.3,616.9z M1125,611.7l18.7-0.3c-0.3-3.3-1.3-5.8-3-7.4
			c-1.7-1.6-3.9-2.4-6.6-2.4c-2.6,0-4.7,0.9-6.3,2.6C1126.3,605.9,1125.3,608.4,1125,611.7z"/>
		<linearGradient id="SVGID_13_" gradientUnits="userSpaceOnUse" x1="962.4346" y1="609.7637" x2="1253.0498" y2="609.7637">
			<stop  offset="0" style="stop-color:#0025FF;stop-opacity:0.8"/>
			<stop  offset="1.606572e-02" style="stop-color:#0022FA;stop-opacity:0.8032"/>
			<stop  offset="0.1025" style="stop-color:#0116E4;stop-opacity:0.8205"/>
			<stop  offset="0.2046" style="stop-color:#020CD3;stop-opacity:0.8409"/>
			<stop  offset="0.3309" style="stop-color:#0305C8;stop-opacity:0.8662"/>
			<stop  offset="0.5081" style="stop-color:#0301C1;stop-opacity:0.9016"/>
			<stop  offset="1" style="stop-color:#0300BF"/>
		</linearGradient>
		<path class="st22" d="M1200.8,621.5c0,2.7-0.6,5-2,6.9s-3.4,3.4-6.1,4.5c-2.7,1-6,1.6-9.9,1.7c-3.7,0.1-6.9-0.4-9.5-1.4
			s-4.6-2.3-5.9-3.9s-1.9-3.2-2-4.8c0-1.1,0.4-2,1.2-2.8c0.8-0.8,1.8-1.2,3-1.2c1.1,0,1.9,0.2,2.5,0.7c0.6,0.5,1.2,1.2,1.7,2.1
			c1.1,1.7,2.4,3,3.9,3.8c1.5,0.8,3.5,1.2,6,1.2c2.1,0,3.8-0.5,5.1-1.4c1.3-0.9,2-1.9,1.9-3c0-1.7-0.7-2.9-2.1-3.7
			c-1.4-0.8-3.7-1.5-6.8-2.1c-3.6-0.8-6.5-1.6-8.7-2.5c-2.2-0.9-4-2.1-5.4-3.5s-2.1-3.3-2.1-5.5c0-1.9,0.6-3.8,1.8-5.6
			c1.2-1.8,3-3.2,5.4-4.2c2.4-1.1,5.3-1.6,8.7-1.7c2.7,0,5.1,0.2,7.2,0.7c2.1,0.5,3.9,1.2,5.4,2c1.4,0.9,2.5,1.8,3.3,2.9
			c0.8,1.1,1.2,2.1,1.2,3.1c0,1.1-0.4,2-1.1,2.8c-0.8,0.7-1.9,1.1-3.4,1.1c-1.1,0-2-0.3-2.7-0.8c-0.8-0.6-1.6-1.4-2.6-2.5
			c-0.8-0.9-1.7-1.7-2.8-2.2c-1.1-0.6-2.5-0.8-4.3-0.8c-1.9,0-3.4,0.4-4.6,1.2c-1.2,0.8-1.8,1.7-1.8,2.8c0,1,0.5,1.9,1.4,2.5
			s2.1,1.2,3.7,1.6c1.5,0.4,3.7,0.9,6.4,1.5c3.2,0.7,5.8,1.5,7.9,2.5c2,1,3.6,2.2,4.7,3.5C1200.2,618.1,1200.7,619.7,1200.8,621.5z"
			/>
	</g>
	<text transform="matrix(1.0598 -1.849955e-02 1.745241e-02 0.9998 963.6058 634.1094)"><tspan x="0" y="0" class="st8 st9 st10 st11">N</tspan><tspan x="60.2" y="1" class="st8 st9 st10 st11">o</tspan><tspan x="108.9" y="1.7" class="st8 st9 st10 st11">t</tspan><tspan x="139.5" y="2.5" class="st8 st9 st10 st11">e</tspan><tspan x="187.5" y="3.3" class="st8 st9 st10 st11">s</tspan></text>
</g>
<path class="st23" d="M952.7,621.2h-11.3c-2.4,0-4.4-2-4.4-4.4v-4.3c0-2.4,2-4.4,4.4-4.4h11.3c2.4,0,4.4,2,4.4,4.4v4.3
	C957.1,619.2,955.1,621.2,952.7,621.2z"/>
<text transform="matrix(1.4791 -5.165126e-02 3.489950e-02 0.9994 990.7375 680.8041)"><tspan x="0" y="0" class="st13 st14 st15 st16">A</tspan><tspan x="6.8" y="0.4" class="st13 st14 st15 st16">N</tspan><tspan x="14" y="0.7" class="st13 st14 st15 st16">Y</tspan><tspan x="20.8" y="1.1" class="st13 st14 st15 st16"> </tspan><tspan x="26.9" y="1.4" class="st13 st14 st15 st16">T</tspan><tspan x="33.2" y="1.6" class="st13 st14 st15 st16">I</tspan><tspan x="36.7" y="1.9" class="st13 st14 st15 st16">M</tspan><tspan x="44.9" y="2.3" class="st13 st14 st15 st16">E</tspan><tspan x="51.7" y="2.7" class="st13 st14 st15 st16"> </tspan><tspan x="57.8" y="3" class="st13 st14 st15 st16">A</tspan><tspan x="64.6" y="3.3" class="st13 st14 st15 st16">N</tspan><tspan x="71.8" y="3.7" class="st13 st14 st15 st16">Y</tspan><tspan x="78.6" y="4" class="st13 st14 st15 st16"> </tspan><tspan x="84.6" y="4.4" class="st13 st14 st15 st16">W</tspan><tspan x="93.7" y="4.9" class="st13 st14 st15 st16">H</tspan><tspan x="101" y="5.2" class="st13 st14 st15 st16">E</tspan><tspan x="107.8" y="5.6" class="st13 st14 st15 st16">R</tspan><tspan x="115" y="5.9" class="st13 st14 st15 st16">E</tspan></text>
<g>
	<path class="st24" d="M174.5,404.8c-38.4,0-69.1-23.3-85-45.2c-15.6-21.4-19.8-44.2-20.6-59.6l0-0.3h37.4l0,0.2
		c0,0.2,2.7,16.4,11.6,32.4c8.2,14.8,23.5,32.3,49.7,32.3c0,0,0,0,0,0c11,0,23.1-3.1,36.2-9.1l0,0h55.8l-0.2,0.4
		c-6.1,9.6-29.1,41.2-70.6,47.7C184.1,404.4,179.3,404.8,174.5,404.8C174.5,404.8,174.5,404.8,174.5,404.8z"/>
	<path class="st25" d="M106,300c0,0,10.5,65,61.6,65c10.4,0,22.4-2.7,36.3-9.1h55.3c-3.7,5.9-26.7,40.8-70.5,47.6
		c-4.8,0.7-9.6,1.1-14.3,1.1c-36.3,0-67.4-21.2-84.8-45.1c-17.1-23.5-20-48.1-20.6-59.5H106 M106,299.5H69.1h-0.5l0,0.5
		c0.8,15.4,5,38.3,20.7,59.7c16,21.9,46.8,45.3,85.2,45.3c4.8,0,9.6-0.4,14.4-1.1c41.6-6.4,64.7-38.2,70.8-47.8l0.5-0.8h-0.9H204
		h-0.1l-0.1,0c-13,6-25.2,9-36.1,9c-26.1,0-41.4-17.5-49.5-32.2c-8.9-16-11.6-32.2-11.6-32.3l-0.1-0.4L106,299.5L106,299.5z"/>
</g>
<path class="st26" d="M69.1,303.2"/>
<g>
	<path class="st24" d="M29.7,299.5l0-0.3c0.6-8.6,8.1-84.8,71.3-120.8c20-11.4,43.4-17.4,67.8-17.4c1.2,0,2.4,0,3.5,0l0.2,0v35.6
		l-0.2,0c-9.5,0.8-58.4,6.9-85.9,48.6c-13.1,19.8-16.5,40.3-17.1,54l0,0.2H29.7z"/>
	<path class="st25" d="M168.8,161.3c1.2,0,2.4,0,3.5,0v35.1c-7.3,0.6-57.7,5.7-86.1,48.7c-14,21.3-16.7,42.7-17.2,54.2H29.9
		c0.6-8,7.6-84.3,71.2-120.6C127.2,163.8,152.9,161.3,168.8,161.3 M168.8,160.8v0.5V160.8L168.8,160.8c-24.4,0-47.9,6-67.9,17.5
		c-26.8,15.3-46.8,39.2-59.5,71.2c-9.5,23.8-11.6,44.2-12,49.8l0,0.5h0.5h39.2h0.5l0-0.5c0.6-13.7,4-34.2,17.1-53.9
		c27.4-41.5,76.2-47.6,85.7-48.4l0.5,0v-0.5v-35.1v-0.5l-0.5,0C171.2,160.8,170,160.8,168.8,160.8L168.8,160.8z"/>
</g>
<path class="st27" d="M272.4,318.8h-88.3c-3.5,2-7.5,3.2-11.8,3.2c-12.8,0-23.2-10.4-23.2-23.1c0-12.8,10.4-23.1,23.2-23.1
	c5.2,0,10,1.7,13.9,4.6c16-0.1,32-0.1,48-0.2c-1.2-4.7-6.4-22.8-24.4-35.2c-15.9-11-32.2-11-36.8-10.7V197
	c4.4,0.3,58.9,4.8,86.6,51.6C277.5,278.8,274,309.1,272.4,318.8z"/>
<g>
	<text transform="matrix(1.0598 -1.849955e-02 1.745241e-02 0.9998 328.1573 329.872)"><tspan x="0" y="0" class="st28 st9 st10 st11">N</tspan><tspan x="60.2" y="1" class="st28 st9 st10 st11">o</tspan><tspan x="108.9" y="1.7" class="st28 st9 st10 st11">t</tspan><tspan x="139.5" y="2.5" class="st28 st9 st10 st11">e</tspan><tspan x="187.5" y="3.3" class="st28 st9 st10 st11">s</tspan></text>
</g>
<path d="M310.1,322h-11.3c-2.4,0-4.4-2-4.4-4.4v-4.3c0-2.4,2-4.4,4.4-4.4h11.3c2.4,0,4.4,2,4.4,4.4v4.3
	C314.5,320.1,312.5,322,310.1,322z"/>
<rect x="784.1" y="702.4" class="st29" width="5.1" height="0"/>
</svg>
